<?xml version="1.0" encoding="utf-8"?>
<!-- Generator: Adobe Illustrator 27.5.0, SVG Export Plug-In . SVG Version: 6.00 Build 0)  -->
<svg version="1.1" xmlns="http://www.w3.org/2000/svg" xmlns:xlink="http://www.w3.org/1999/xlink" x="0px" y="0px"
	 viewBox="0 0 2200 2200" style="enable-background:new 0 0 2200 2200;" xml:space="preserve">
<g id="background">
	<rect style="fill:#FFFFFF;" width="2200" height="2200"/>
</g>
<g id="Objects">
	<path style="fill:#AA2636;" d="M1834.439,425.099c-82.512-130.491-228.353-191.213-378.982-181.949
		c-46.283,2.355-92.424,10.564-136.389,25.474c-153.574,51.156-261.965,183.929-311.224,334.275
		c-15.285-69.663-49.824-135.304-106.846-179.953c-61.688-49.733-141.524-74.268-220.317-73.41
		c-224.315-0.415-399.27,219.464-388.035,436.325c9.059,274.31,165.285,536.94,382.386,699.046
		c73.882,53.505,156.803,95.774,245.809,116.531c19.264,3.933,29.289-21.398,12.751-31.722
		c-91.17-53.958-175.336-119.23-248.536-195.484c-129.029-132.057-219.86-303.703-245.64-486.443
		c-5.457-38.302-7.857-76.792-7.365-115.402c2.006-105.924,63.022-213.386,156.495-264.381
		c90.041-48.797,216.433-38.735,291.302,34.699c57.625,57.554,80.676,136.339,99.42,215.691
		c-0.57,20.336,27.949,24.639,33.227,4.746c5.04-22.059,11.762-43.86,19.627-65.123c36.684-97.376,96.767-190.073,179.139-252.649
		c66.08-50.764,148.314-77.261,231.329-76.127c58.034-0.11,119.189,12.1,166.051,38.843
		c105.203,57.508,143.578,178.004,137.087,292.291c-2.254,46.765-7.752,93.088-17.33,138.612
		c-19.083,91.217-55.756,176.371-109.078,253.379c-129.559,185.21-338.444,330.557-481.433,512.264
		c-59.048,72.466-112.818,151.406-141.32,241.32c-9.616,29.963-17.148,60.79-19.928,92.247
		c-1.198,17.473,19.303,25.772,30.957,14.237c8.968-8.994,18.966-20.757,27.177-29.966c45.426-52.751,97.365-117.078,142.01-170.454
		c54.981-66.013,117.121-125.3,182.032-181.764c162.424-140.767,346.018-270.596,450.443-465.517
		c63.406-115.567,93.974-247.326,97.946-378.409C1911.923,621.825,1891.915,514.52,1834.439,425.099z"/>
</g>
</svg>
